<svg width="150" height="150" viewBox="0 0 150 150" fill="none" xmlns="http://www.w3.org/2000/svg">
<path fill-rule="evenodd" clip-rule="evenodd" d="M115.31 87.0332C123.92 77.4232 128.26 66.1332 128.22 53.3532H128.21C128.21 52.5132 128.23 51.6732 128.21 50.8432V50.8399C128.19 50.011 128.17 49.1721 128.06 48.3432C126.01 32.7332 118.6 20.1932 105.17 11.1032C97.4003 5.8432 88.7202 2.9032 79.3103 2.17322C70.9103 1.52319 62.7403 2.69318 54.9103 5.8432C44.1002 10.2032 35.4702 17.1232 29.4803 26.8232C21.7703 39.3032 19.7303 52.7032 23.5902 66.8332C25.7303 74.6732 29.4702 81.7932 35.3402 87.5932C44.2456 96.3828 53.261 105.062 62.2764 113.742C65.713 117.05 69.1497 120.359 72.5802 123.673C74.4003 125.433 75.7303 125.433 77.5603 123.673C80.6303 120.723 83.6803 117.763 86.7403 114.803L101.29 100.733C102.761 99.3065 104.26 97.9033 105.76 96.4999C109.042 93.4281 112.324 90.3555 115.31 87.0332ZM75.1603 74.2232C63.0902 74.5432 52.1303 64.7732 52.1303 52.4032V52.4132C51.7903 40.4732 61.4803 30.6532 73.5802 29.9832C87.0403 29.2332 97.3302 39.1132 97.9003 50.6632C98.5503 63.8232 88.7703 73.8632 75.1603 74.2232ZM40.1902 145.943C50.8402 147.193 61.5802 147.913 72.4203 147.993H72.4302C74.8356 147.938 77.2384 147.881 79.6413 147.823C82.0435 147.766 84.4456 147.708 86.8502 147.653C95.1203 147.463 103.31 146.773 111.43 145.723C118.96 144.743 126.36 143.453 133.4 141.333C137.81 140.013 142.05 138.483 145.27 135.943C148.57 133.333 149.01 130.273 145.97 127.843C144.15 126.383 141.95 125.023 139.56 124.023C129.98 120.013 119.2 118.333 108.28 117.043C107.68 116.973 106.79 117.223 106.34 117.523C102.486 120.114 98.6695 122.719 94.8518 125.325C93.1728 126.471 91.4934 127.618 89.8103 128.763C85.8302 131.473 81.8502 134.173 77.8502 136.863C76.2703 137.923 74.0003 138.043 72.6203 137.113C68.5103 134.343 64.4203 131.563 60.3402 128.773C58.9529 127.827 57.5668 126.88 56.1807 125.933C52.0019 123.077 47.8229 120.222 43.6103 117.383C43.2002 117.103 42.3302 116.933 41.7603 117.013C41.1027 117.104 40.4449 117.195 39.7871 117.285C36.1138 117.788 32.4433 118.292 28.8302 118.953C21.2603 120.333 13.8202 122.023 7.58023 125.393C5.69021 126.413 3.97024 127.783 2.88028 129.233C0.810208 131.983 2.60025 134.633 6.07022 136.913C9.17032 138.953 13.0003 140.303 16.9203 141.443C24.3903 143.613 32.2102 145.003 40.1902 145.943Z" fill="#026c82"/>
</svg>
