<svg width="150" height="150" viewBox="0 0 150 150" fill="none" xmlns="http://www.w3.org/2000/svg">
<path fill-rule="evenodd" clip-rule="evenodd" d="M147.791 34.4913C147.846 33.84 147.901 33.1876 147.959 32.5352V28.3452C147.929 28.1829 147.895 28.0241 147.862 27.8668C147.84 27.7626 147.819 27.6589 147.799 27.5552C147.674 26.8715 147.569 26.1813 147.465 25.4906C147.252 24.0801 147.038 22.6679 146.649 21.3052C142.729 7.50526 130.119 -0.264761 116.439 2.58521C104.039 5.16523 94.7688 17.2852 96.0088 29.8252C96.4781 34.5481 97.3554 39.2414 98.2315 43.9279C98.4944 45.3341 98.7572 46.7396 99.0088 48.1452C99.4287 50.5053 101.789 51.8552 104.149 51.3352C106.289 50.8652 107.759 48.6253 107.379 46.4052C107.147 45.049 106.904 43.6944 106.662 42.34C106.06 38.971 105.458 35.6033 105.009 32.2152C104.699 29.8352 104.579 27.3252 104.969 24.9652C106.369 16.4552 113.669 10.6552 121.609 10.5653C126.169 10.5152 130.259 11.7352 133.609 14.9353C137.689 18.8352 139.169 23.8352 139.329 29.2852C139.459 33.5053 139.019 37.7152 138.299 41.8853C136.929 49.7952 134.429 57.3052 130.579 64.3552C130.239 64.9752 129.959 65.6953 129.899 66.3952C129.729 68.4652 131.009 70.2652 132.939 70.8452C134.969 71.4453 136.969 70.6152 138.069 68.5852C143.489 58.5952 146.589 47.9152 147.609 36.6052C147.671 35.9028 147.731 35.1977 147.791 34.4913ZM52.3811 147.849C52.5799 147.893 52.7793 147.937 52.9788 147.985L53.0088 147.995H55.1988C57.9187 147.485 60.0788 146.095 62.0288 144.135C82.4788 123.645 102.969 103.185 123.459 82.7352C124.299 81.8952 124.809 80.9452 124.949 79.8052C124.97 79.6222 124.992 79.4391 125.014 79.2559C125.166 77.9869 125.319 76.7122 125.319 75.4452C125.309 71.5552 125.289 67.6552 125.109 63.7652C124.957 60.4576 124.671 57.166 124.383 53.8689L124.279 52.6652C123.929 48.6952 123.569 44.7352 123.119 40.7752C122.779 37.7252 122.339 34.6952 121.859 31.6652C121.539 29.6652 120.239 28.5252 118.279 28.1652C116.779 27.8852 115.279 27.6552 113.779 27.4452C112.59 27.2796 111.395 27.148 110.16 27.012C109.754 26.9674 109.344 26.9222 108.929 26.8752C108.919 27.0911 108.901 27.296 108.884 27.4929C108.85 27.8884 108.819 28.2513 108.859 28.6052C109.129 31.2052 109.409 33.7952 109.769 36.3852C109.829 36.8552 110.169 37.3752 110.539 37.6952C113.469 40.1952 114.999 43.2952 114.949 47.1952C114.859 54.6152 107.899 60.1552 100.659 58.5652C92.4588 56.7652 88.8988 47.7952 92.8488 40.7152C93.0387 40.3852 93.0788 39.9152 93.0387 39.5352C92.9036 38.3883 92.7578 37.2427 92.6121 36.0975C92.3587 34.1074 92.1055 32.1183 91.9087 30.1252C91.8134 29.1306 91.8388 28.1221 91.8645 27.0933C91.8766 26.6119 91.8888 26.1261 91.8888 25.6352C91.6333 25.6224 91.382 25.6066 91.1337 25.591C90.6044 25.5577 90.0893 25.5252 89.5788 25.5252C88.5208 25.5186 87.4626 25.5116 86.4041 25.5046C81.1097 25.4699 75.8092 25.4352 70.5088 25.4352C69.0888 25.4252 67.9488 25.9352 66.8988 27.0152C63.1657 30.8333 59.3788 34.6036 55.5937 38.3723C54.4815 39.4797 53.3694 40.5869 52.2588 41.6952C47.0629 46.8878 41.867 52.0793 36.6714 57.2704C26.188 67.7448 15.7062 78.2178 5.22879 88.6952C0.918733 92.9952 0.928743 99.0252 5.22879 103.325C10.7389 108.835 16.2506 114.344 21.7621 119.852C30.054 128.139 38.345 136.425 46.6288 144.715C47.9187 146.015 49.3788 147.005 51.1388 147.535C51.5458 147.664 51.9619 147.756 52.3811 147.849Z" fill="#026c82"/>
</svg>
