<svg width="150" height="150" viewBox="0 0 150 150" fill="#026c82" xmlns="http://www.w3.org/2000/svg">
<path fill-rule="evenodd" clip-rule="evenodd" d="M71.2228 2.1C72.4728 2.03 73.7328 2 75.0028 2C115.313 2 147.963 34.72 147.963 75.03C147.963 115.34 115.283 148.02 74.9728 148.02C51.9128 148.02 31.3628 137.32 17.9828 120.61C18.3028 120.49 18.6328 120.39 18.9128 120.33C19.6124 117.501 18.6336 114.944 17.6547 112.388C16.7029 109.902 15.7512 107.416 16.3428 104.68C12.0719 93.9147 13.4997 91.1364 15.1325 87.9589C16.1874 85.9062 17.3279 83.6869 17.0728 79.04C15.3413 80.4252 14.5104 80.528 13.476 80.6559L13.4428 80.66C13.3028 80.25 13.1128 79.7 12.9628 79.29C16.1228 77.28 26.3028 70.1 20.6328 66.79C20.5928 66.51 20.5478 66.185 20.5028 65.8599C20.4578 65.535 20.4128 65.21 20.3728 64.93C19.7247 66.8045 18.7287 66.9492 17.5631 67.1185L17.5528 67.12C16.7861 63.3933 16.7361 61.4267 17.4028 61.22H17.5828C18.0228 63.93 18.2428 64.11 19.1828 64.86C19.5928 64.79 20.1428 64.56 20.4528 64.27C21.3794 65.2567 23.5361 65.8167 26.9228 65.95C27.2364 66.3597 27.5014 66.8001 27.7669 67.2414C28.0264 67.6727 28.2864 68.1048 28.5928 68.51L29.3028 68.21C29.3128 68.4 29.3328 68.65 29.3528 68.84C29.1028 68.97 28.7628 69.14 28.5028 69.26C28.9294 69.92 29.4194 70.33 29.9728 70.49C30.3128 70.24 30.6728 69.78 30.8728 69.41C30.6928 78.91 34.8628 82.86 34.9028 82.88C35.5378 81.6422 35.9793 80.3101 36.4251 78.965C37.4955 75.7349 38.591 72.4291 42.4528 70.17C43.8994 70.0033 44.8628 69.7367 45.3428 69.37C45.3828 69.41 48.8828 73.58 48.1328 75.17C48.3028 75.31 48.5228 75.5 48.6928 75.65C49.6128 75.53 49.6428 75.52 50.5228 74.69C50.6128 74.73 50.7203 74.775 50.8278 74.82C50.9353 74.865 51.0428 74.91 51.1328 74.95C50.5628 79.71 54.1728 89.94 56.9428 89.21C57.0028 88.76 57.3828 84.86 53.7928 83.81C52.9661 81.5167 52.8294 79.7333 53.3828 78.46C54.3294 78.76 55.0861 79.45 55.6528 80.53C57.1128 80.87 57.9228 81.06 57.5228 82.95C63.0808 80.1038 61.7173 78.1413 60.1642 75.9059C59.2891 74.6462 58.3537 73.2999 58.5628 71.66C58.6582 70.3751 60.7039 70.0491 62.821 69.7118C64.0322 69.5188 65.2667 69.3221 66.1728 68.94C71.0328 66.7 76.1428 61.46 71.2228 55.62C71.3094 55.22 72.1228 54.7267 73.6628 54.14C73.728 52.9245 72.7315 52.8235 71.6863 52.7175C70.9688 52.6447 70.2283 52.5696 69.7928 52.13C70.9028 50.82 72.3128 49.69 72.9828 49.4C73.2494 49.9267 73.2761 50.6067 73.0628 51.44C74.8928 50.29 75.4228 50.29 76.1428 50.29C76.2684 50.7147 76.2294 51.1393 76.1907 51.5618C76.1646 51.8457 76.1387 52.1287 76.1628 52.41C76.4828 52.65 77.0128 52.89 77.4128 52.92C77.4072 53.5045 77.3551 54.0828 77.3032 54.66C77.2618 55.1198 77.2205 55.5789 77.2028 56.04L77.7528 56.39C79.8928 55.4167 80.1961 53.6067 78.6628 50.96C79.7817 49.3586 81.3372 48.0648 82.8928 46.7709C85.9806 44.2026 89.0686 41.6341 88.7428 36.66C89.1828 34.61 88.4728 33.84 87.7128 33.23C86.8128 33.65 86.1028 33.98 84.3128 32.57C85.7028 30.71 87.5728 28.24 89.0028 26.41C92.3428 27.22 96.8528 27.06 96.8528 27.06C97.9594 24.36 98.7061 23.0333 99.0928 23.08C99.1328 23.54 99.2128 24.15 99.3028 24.61C99.3637 24.6172 99.4337 24.6256 99.5067 24.6345C99.6372 24.6502 99.7773 24.6672 99.8928 24.68C100.079 24.46 100.476 23.8633 101.083 22.89C100.847 23.9288 100.576 24.9835 100.308 26.0283C98.9283 31.3998 97.6169 36.5073 101.443 37.83C101.613 37.72 101.843 37.58 102.013 37.48C102.726 34.3067 103.216 32.6133 103.483 32.4C102.847 31.6973 102.955 30.9185 103.063 30.1385C103.116 29.753 103.169 29.3671 103.133 28.99C102.952 28.7787 102.961 28.7825 102.962 28.7811C102.963 28.7798 102.957 28.7738 102.783 28.58C101.553 26.93 102.283 24.54 103.793 25.76C103.953 25.43 104.273 25.04 104.563 24.83C104.993 25 105.543 25.3 105.913 25.57C106.453 23.95 106.979 22.81 107.493 22.15C108.113 22.1367 108.736 22.42 109.363 23C109.203 22.14 108.763 20.96 106.753 19.43C106.838 19.38 106.938 19.32 107.038 19.26C107.138 19.2 107.238 19.14 107.323 19.09C107.363 18.53 107.113 17.9633 106.573 17.39C106.963 17.5 107.433 17.81 107.703 18.1C108.143 18.1133 109.183 18.65 110.823 19.71C110.79 19.4576 110.734 19.2092 110.679 18.9608C110.58 18.5204 110.481 18.0804 110.513 17.62C110.544 17.6024 110.584 17.5886 110.626 17.5745C110.679 17.5566 110.734 17.538 110.773 17.51L110.743 17.485C109.8 16.6889 109.169 16.1563 107.803 15.8C107.848 15.885 107.903 15.9875 107.958 16.09C108.013 16.1925 108.068 16.295 108.113 16.38C102.133 12.84 98.6361 11.2667 97.6228 11.66C97.8078 11.835 98.0203 12.0375 98.2328 12.24C98.4453 12.4425 98.6578 12.645 98.8428 12.82C98.7478 12.865 98.6378 12.915 98.5278 12.965C98.4178 13.015 98.3078 13.065 98.2128 13.11C97.9429 12.8656 97.7534 12.5641 97.5637 12.2623C97.3809 11.9715 97.198 11.6805 96.9428 11.44L96.7528 12.03C96.1181 11.8352 95.4992 11.9405 94.8811 12.0457C94.5157 12.1079 94.1506 12.17 93.7828 12.17C92.6961 11.0633 90.5061 10.07 87.2128 9.19C87.1878 9.09 87.1603 8.97 87.1328 8.85C87.1053 8.73 87.0778 8.61 87.0528 8.51C85.2528 7.86 83.7628 7.63 82.6228 7.81C82.5528 8.17 82.5828 8.68 82.6728 9.03C82.5228 9.15 82.3228 9.3 82.1728 9.41C81.8228 9.33 81.3528 9.18 81.0228 9.03C80.9328 9.14248 80.8147 9.27746 80.7064 9.40119C80.6703 9.44246 80.6353 9.48248 80.6028 9.52C80.2628 9.34 79.8228 9.08 79.5028 8.87C79.4897 8.94359 79.4758 9.02093 79.4615 9.10079C79.3881 9.50923 79.303 9.98359 79.2528 10.36C77.9797 10.1388 77.5825 9.16113 77.1853 8.18342C76.8462 7.34864 76.5071 6.51385 75.6228 6.15C75.3928 6.49 75.1028 6.95 74.8928 7.31C73.8144 7.44734 72.7594 7.27161 71.7052 7.09604C70.687 6.92645 69.6695 6.75699 68.6328 6.87C69.0867 6.35927 69.6681 5.98022 70.2501 5.60072C71.2066 4.9771 72.1649 4.35228 72.5628 3.14L72.2228 2.63L71.2628 2.51L70.7628 2.84C70.9628 2.57 71.1228 2.35 71.2228 2.1ZM19.6428 101.41C20.0028 101.51 20.3528 102.54 20.5728 103.38C25.5928 121.75 16.1428 108.07 19.6428 101.41ZM36.8628 84.5C36.2728 83.92 36.3728 81.93 37.0128 81.47C38.7728 83.4 37.8528 85.05 36.8628 84.5ZM97.7328 43.22C97.5728 43.13 97.4828 43.09 97.3328 43.09V43.1C97.1128 43.02 96.2428 43.78 96.8928 43.79C97.1128 43.69 97.4828 43.42 97.7328 43.22ZM96.2428 43.95C96.2528 43.8 96.1428 43.78 96.0828 43.78C95.6428 43.8 94.7828 44.5 94.8128 45.03C95.6328 44.94 96.2228 44.4 96.2428 43.95ZM90.2914 34.3515C90.1664 33.8587 90.0488 33.3952 89.9328 32.99H89.9228C89.3655 34.4255 89.457 34.877 89.7518 36.3314C89.8062 36.5994 89.8674 36.9014 89.9328 37.25C89.7728 38.22 90.2128 42.31 90.5828 43.18C90.5528 42.55 90.9328 42.02 92.1428 43.21C92.1235 42.9573 91.8818 42.5002 91.6145 41.9949C90.9087 40.6603 90.0251 38.9896 92.5928 39.86C91.436 38.8639 90.8019 36.3642 90.2914 34.3515ZM90.337 44.8617C90.3433 45.369 90.351 45.9879 90.0628 46.54V46.55C90.0333 46.5594 90.0033 46.5688 89.9728 46.5783C89.3209 46.7822 88.5039 47.0377 90.2428 48.06C89.7328 47.73 89.7428 47.6 89.7528 47.48C90.1632 47.5415 90.4735 47.6116 90.7323 47.6701C91.6525 47.8781 91.922 47.939 93.7328 46.94C94.0826 46.057 93.3191 45.6829 92.4477 45.2558C91.7499 44.9139 90.9829 44.5381 90.6628 43.84C90.3252 43.9218 90.3303 44.3306 90.337 44.8617ZM90.3828 52.22C91.4828 51.53 91.5828 49.94 90.0028 48.94V48.92C88.614 53.4615 88.1146 53.68 82.7459 56.0277C82.3931 56.182 82.0193 56.3455 81.6228 56.52C82.4728 56.81 82.6428 56.69 82.6428 56.69C83.6028 55.97 84.5728 55.8 85.5328 56.18C85.2628 57.43 86.4028 57.83 87.0028 55.63C87.0502 55.6431 87.128 55.6873 87.2279 55.7441C87.7382 56.034 88.8257 56.652 89.4028 55.13C89.6128 55.95 91.3428 56.29 90.3828 52.22ZM83.4561 58.3785C83.4451 57.9242 83.9575 57.6815 84.3933 57.475C84.9836 57.1954 85.4335 56.9823 84.2528 56.4C84.2428 56.4 83.3528 56.48 83.1028 57.21C83.0592 57.3115 83.1209 57.4575 83.211 57.6705C83.288 57.8527 83.3858 58.084 83.4561 58.3785ZM81.3128 57.87C79.0128 61.33 85.3928 59.6 81.6828 56.96L81.6728 56.95C81.0628 56.98 80.6028 57.55 80.3828 57.89C80.6128 58.01 80.8828 58.01 81.1928 57.89C81.2828 57.86 81.2928 57.86 81.3128 57.87ZM78.9428 93.7C78.9228 93.53 78.9528 93.27 78.9828 93.09C83.9128 93.4 79.9728 94.17 78.9428 93.7ZM79.5007 88.0958C79.4746 88.1725 79.2835 88.2957 79.0501 88.4462C78.4158 88.8551 77.4693 89.4652 78.6728 89.89C79.0713 92.8589 79.3209 90.3886 79.5007 88.0958ZM77.4128 93.28C77.3528 93.37 77.2328 93.41 77.0828 93.45C76.8928 94.04 78.8228 93.89 77.4728 93.24C77.4382 93.24 77.4335 93.2475 77.42 93.2688C77.4179 93.2722 77.4155 93.2759 77.4128 93.28ZM74.3428 100.3C74.6028 99.97 74.8128 99.84 74.8128 99.84C74.679 99.792 75.1913 99.5815 75.8366 99.3165C77.0723 98.8089 78.7955 98.1011 77.4028 97.95C76.3428 98.2 75.7028 98.41 74.3428 100.3ZM73.9328 93.3C72.7828 92.17 72.6628 92.02 74.8328 91.02C74.6099 90.8762 73.8884 90.9986 73.1966 91.1159C71.9638 91.325 70.8254 91.518 72.7728 90.16C74.4428 90.28 77.4728 90.02 76.2628 88.7C75.2344 89.7323 74.4141 89.5929 73.6677 89.4661C72.5268 89.2722 71.5582 89.1076 70.2828 93.2C70.8775 93.3164 71.0209 93.8882 71.183 94.5346C71.2717 94.8882 71.366 95.2641 71.5428 95.6C71.9133 95.2366 71.9767 94.5684 72.0263 94.0443C72.1161 93.0976 72.1612 92.6209 73.8928 95.26C74.7352 95.5684 74.6102 95.2262 74.288 94.344C74.1818 94.0533 74.0542 93.704 73.9328 93.3ZM68.9228 97.75C68.5728 97.77 68.3728 97.87 67.9628 98.21C68.2328 98.59 69.6828 98.56 71.0128 98.07H71.0028C70.7371 97.8105 70.563 97.8106 70.1244 97.8108C69.8532 97.811 69.4807 97.8111 68.9228 97.75ZM71.2528 99.24C71.8928 100.02 73.1528 99.64 71.5728 98.71V98.72C71.5582 98.7672 71.4619 98.7537 71.3326 98.7356C71.106 98.7039 70.7783 98.6581 70.6128 98.9C70.6312 98.8921 70.6385 98.9098 70.6514 98.9407C70.6873 99.0274 70.7663 99.2179 71.2528 99.24ZM74.4744 97.8521C74.0996 97.9144 73.519 98.0109 71.4928 97.89C71.5359 97.8998 71.594 97.9361 71.672 97.9849C71.9919 98.1848 72.6463 98.5937 73.9728 98.24C74.2428 98.18 74.6628 98.11 75.8328 97.94C75.5328 97.83 75.1628 97.81 74.9128 97.81C74.7451 97.8071 74.6268 97.8268 74.4744 97.8521ZM77.4191 84.3614C76.6911 82.6761 76.2136 84.481 76.7128 85.08C76.0988 84.748 75.6526 84.3305 75.2952 83.9962C74.5118 83.2632 74.1551 82.9295 73.3928 84.77C73.2728 83.93 73.6028 82.69 74.3228 82.55C75.1936 82.7353 76.528 82.1653 77.0058 81.9611C77.0438 81.9449 77.0763 81.931 77.1028 81.92C77.7551 83.195 77.5966 83.835 77.4191 84.3614ZM74.0841 77.5206C81.4616 80.5403 71.9029 82.8399 73.5728 81.43C72.5828 79.3 73.8828 79.3 74.5628 80.19C76.2128 79.92 75.4128 79.3 74.8528 78.99C74.7928 78.73 74.6528 78.13 73.7728 77.59C73.8611 77.5409 73.9302 77.5304 74.0841 77.5206ZM71.7128 76.41C72.0128 77.39 73.5028 78.76 72.6828 76.04C72.7193 75.5971 73.0003 75.382 73.2579 75.1848C73.6342 74.8967 73.9608 74.6467 73.4028 73.78L73.3988 73.7591C73.3195 73.341 73.213 72.7793 72.0328 72.74H71.8828C71.9675 73.1173 71.8655 73.6293 71.7555 74.1808C71.606 74.9305 71.442 75.7532 71.7128 76.41ZM72.7891 67.7951C73.1738 67.178 73.5852 66.5178 73.0028 65.83C71.8028 66.05 70.4828 68.79 72.4428 69.19C72.189 68.7581 72.4804 68.2905 72.7891 67.7951ZM72.5228 79.34C72.5728 79.39 73.0828 77.83 71.8728 77.88C71.5428 77.9 71.4328 77.98 71.4328 77.98C71.4565 77.9975 71.4818 78.0153 71.5087 78.0341C71.7423 78.1978 72.0923 78.4432 72.5228 79.34ZM69.1479 82.4968C69.8224 82.0616 71.0888 81.2446 70.7428 79.78C70.6864 80.313 70.1913 80.7647 69.6762 81.2345C69.1864 81.6813 68.6785 82.1446 68.5128 82.71C68.5128 82.71 68.6228 82.85 68.7928 82.75C68.8553 82.6855 68.9841 82.6024 69.1479 82.4968ZM63.1628 71C63.1628 71 63.2128 71.01 63.1928 71.12C62.0128 75.71 59.0028 71.67 63.1628 71ZM62.927 88.7268C62.9256 88.7279 62.9242 88.7289 62.9228 88.73H62.9328C62.9308 88.7289 62.9289 88.7279 62.927 88.7268ZM66.6391 85.6341C65.6892 86.4868 64.7198 87.3572 62.927 88.7268C61.4899 87.9352 60.4144 89.8712 61.6328 90.78L61.6427 90.7883C61.9462 91.041 62.552 91.5455 62.4828 92.95C63.7023 92.587 64.7089 93.0641 65.5453 93.4606C66.7596 94.0361 67.6151 94.4417 68.2428 91.86L68.2523 91.8553C68.6158 91.6736 69.3536 91.305 69.4428 89.6C71.152 89.7841 70.685 89.3977 69.9863 88.8196C69.0909 88.0787 67.8149 87.023 70.2528 86.45C70.1428 86.44 69.9928 86.41 69.8628 86.1C70.1028 85.92 70.4328 85.67 70.3528 85.39C69.9908 85.3006 69.6967 85.0775 69.4028 84.8544C69.0388 84.5782 68.6751 84.3021 68.1828 84.28C67.6023 84.7693 67.1233 85.1994 66.6391 85.6341ZM56.0928 90.44C55.5328 88.84 50.6428 85.57 48.9828 85.22C49.8863 85.677 51.3693 87.8234 52.9093 90.0524C55.7835 94.2125 58.8565 98.6604 58.7328 92.95C56.5875 91.8624 56.2542 90.9042 56.0938 90.443L56.0928 90.44ZM63.8761 96.675C62.6566 96.4133 61.334 96.1294 59.9328 95.65C56.4228 96.59 65.3728 98.74 67.6828 97.81C67.6928 97.8 67.6928 97.78 67.6928 97.78C66.5877 97.2571 65.3024 96.9812 63.8761 96.675ZM89.5928 126.09C89.4728 126.56 89.5728 126.92 89.8928 127.17C89.2528 128.47 91.7728 129.27 91.8428 126.26C91.6128 126.4 90.6028 126.63 89.5928 126.09ZM92.3868 123.934C92.9495 123.71 93.518 123.483 94.0628 123.61C94.2611 122.264 95.1468 120.888 96.0562 119.475C97.7145 116.899 99.4515 114.201 97.2428 111.34C97.2728 110.46 97.2428 110.45 96.4028 110.17C96.5037 108.932 96.0148 108.55 95.4308 108.092C94.9155 107.689 94.3262 107.228 94.0028 106.07C93.8266 105.781 93.8062 105.414 93.7855 105.041C93.744 104.293 93.7011 103.52 92.3928 103.3C92.2928 102.21 92.1228 100.39 91.3528 100.01C91.0941 100.588 90.8779 101.366 90.6558 102.164C89.8561 105.039 88.9793 108.192 85.7628 103.34C88.1128 100.37 83.1528 100.62 81.0928 101.68C80.5308 101.911 80.4148 102.284 80.3008 102.651C80.1532 103.126 80.0089 103.59 78.9028 103.72C78.4728 102.3 76.9828 102.16 74.6828 105.59C73.8997 104.807 73.6453 105.363 73.2778 106.165C72.8286 107.146 72.2107 108.495 70.2528 108.22C64.9179 109.143 66.1842 112.223 67.4389 115.275C68.0869 116.851 68.7318 118.42 68.4628 119.68C69.2496 121.815 71.9633 120.785 74.9469 119.651C78.7126 118.221 82.9083 116.628 84.2028 121.03L84.204 121.023C84.2833 120.577 84.3406 120.254 85.8428 119.18C86.1528 119.43 86.1128 119.56 85.6928 120.79C85.7728 120.74 85.9128 120.71 86.0028 120.72C86.0494 120.853 86.0728 121.13 86.0728 121.55C86.4951 121.529 86.7317 122.051 86.9984 122.641C87.4771 123.699 88.0529 124.971 89.9728 123.7C90.6956 124.61 91.5345 124.275 92.3868 123.934ZM82.1317 96.6547C82.0816 96.9061 82.0562 97.034 81.5328 97.52C81.1728 97.9 82.8328 97.73 82.1428 96.6C82.1388 96.6189 82.1352 96.6371 82.1317 96.6547ZM85.0399 96.0633C85.1931 95.8377 85.3918 95.5451 84.8528 95.12V95.79C84.8051 95.6184 84.7483 95.7013 84.6338 95.8686C84.508 96.0523 84.3125 96.3378 83.9828 96.5C83.9281 96.5644 83.8868 96.5987 83.892 96.6087C83.903 96.6296 84.1204 96.5424 84.8528 96.4C84.8528 96.4959 84.8712 96.4722 84.9345 96.3907L84.9428 96.38C84.9328 96.33 84.9328 96.3 84.9328 96.2601V96.26C84.9472 96.1998 84.9913 96.1349 85.0399 96.0633ZM94.8408 98.0315C95.3923 98.4533 96.2445 99.105 98.5928 99.64C98.5961 99.6333 98.5983 99.6244 98.6005 99.6156C98.605 99.5978 98.6094 99.58 98.6228 99.58C98.2736 98.8118 97.6544 98.3056 97.0363 97.8004C96.6809 97.5098 96.3258 97.2196 96.0228 96.88C95.771 96.6618 95.5932 96.2587 95.3866 95.7904C95.1009 95.1427 94.7602 94.3704 94.0928 93.79C88.5091 91.5286 87.1264 92.3431 86.3995 92.7714C85.7764 93.1385 85.6352 93.2216 83.7428 90.84C82.0428 90.84 81.1328 91.03 81.0128 91.39C81.197 91.5297 81.3838 91.6502 81.57 91.7703C82.3033 92.2433 83.0284 92.7111 83.5628 94.33C83.6478 94.24 83.7453 94.135 83.8428 94.03C83.9403 93.925 84.0378 93.82 84.1228 93.73C84.173 93.7515 84.2402 93.7798 84.3218 93.8141C85.7183 94.4015 91.3159 96.7559 87.6028 97.2C87.6116 97.7543 88.019 97.728 88.5578 97.6933C89.2438 97.649 90.1427 97.591 90.7028 98.7C93.8738 97.292 94.0418 97.4204 94.8408 98.0315ZM97.1028 94.8C100.053 96.01 100.733 93.33 99.0128 92.78C104.303 93.33 97.6228 97.92 97.1028 94.8ZM101.903 131.1L102.723 131.36C103.193 131.05 110.203 126.37 107.943 125.8C107.844 125.737 107.844 125.729 107.841 125.685C107.838 125.63 107.832 125.522 107.633 125.19C107.314 126.48 106.097 127.216 104.861 127.965C103.538 128.766 102.192 129.58 101.903 131.1ZM109.717 124.524C109.551 124.929 109.367 125.378 109.163 125.89C109.923 126 112.523 123.7 113.293 121.94C113.231 121.954 113.134 121.992 113.019 122.037C112.408 122.274 111.271 122.716 111.953 121L111.913 120.98C111.336 121.214 111.365 120.997 111.419 120.594C111.474 120.186 111.555 119.588 111.063 119.07C110.978 121.447 110.61 122.347 109.717 124.524ZM71.2228 2.09003C70.6603 2.12003 70.0978 2.1669 69.5353 2.21378C69.3478 2.2294 69.1603 2.24503 68.9728 2.26003C69.164 2.24473 69.3545 2.22879 69.5449 2.21285C70.1014 2.16629 70.6565 2.11983 71.2228 2.09003ZM33.2078 15.165C33.1253 15.2225 33.0428 15.28 32.9628 15.34L32.9628 15.3399C33.1228 15.22 33.2828 15.1 33.4528 14.99C33.3728 15.05 33.2903 15.1075 33.2078 15.165ZM3.90278 58.5C3.86161 58.6636 3.82114 58.8274 3.78136 58.9915C3.81797 58.8275 3.85511 58.6636 3.89278 58.5H3.90278ZM3.78136 58.9915C2.52275 64.1824 1.95367 69.6142 2.00294 75.0911C2.00391 75.396 2.00917 75.6999 2.01684 76.0031C2.02898 76.5684 2.04765 77.1341 2.07278 77.7C2.06682 77.5213 2.06047 77.3425 2.05411 77.1637C2.04039 76.7775 2.02665 76.3909 2.01684 76.0031C2.01031 75.699 2.00567 75.395 2.00294 75.0911L2.00278 74.99C2.00278 69.4951 2.63205 64.141 3.78136 58.9915ZM18.0027 120.57C14.7727 116.54 11.9627 112.16 9.6427 107.49C11.9627 112.25 14.7627 116.67 18.0027 120.57ZM38.11 12.6946C38.0319 12.5383 37.9352 12.345 37.8474 12.1788C43.1392 9.04019 48.8538 6.55542 54.8927 4.83001C52.7827 5.61001 49.0927 7.59001 46.9427 9.22001L46.9727 9.29001H47.0527L47.0927 9.39001C47.0888 9.5135 46.9816 9.59256 46.8396 9.69735C46.6251 9.85562 46.3311 10.0726 46.1927 10.59C46.1927 10.59 46.7127 10.63 46.9227 10.56C47.2282 8.97353 54.4084 5.212 57.3641 4.16477C56.5323 4.37423 55.717 4.59314 54.8927 4.83001C55.7117 4.59192 56.5398 4.3629 57.377 4.16022C57.4163 4.14633 57.4549 4.13292 57.4927 4.12001C61.2127 3.20001 65.0527 2.58001 68.9727 2.26001C65.6427 3.47001 59.6627 5.87001 57.5427 8.25001V8.86001C57.2127 8.71001 56.8227 8.38001 56.6127 8.09001C55.4994 9.19668 54.9061 9.80668 54.8327 9.92001C54.7427 9.91001 54.6377 9.90001 54.5327 9.89001C54.4277 9.88001 54.3227 9.87001 54.2327 9.86001C54.3727 9.62001 54.9561 8.94001 55.9827 7.82001L55.9725 7.827C53.8778 9.26338 52.3607 10.3037 51.1027 12.57C51.3127 12.61 51.5927 12.65 51.8027 12.68C51.9561 13.2 51.8127 13.8867 51.3727 14.74C51.3328 14.6452 51.2879 14.5354 51.243 14.4255L51.2427 14.4249L51.2426 14.4246C51.1976 14.3147 51.1527 14.2049 51.1127 14.11C51.1576 14.0203 51.2099 13.9133 51.2622 13.8062L51.2627 13.805L51.2633 13.8038C51.3156 13.6967 51.3679 13.5897 51.4127 13.5C51.2701 13.4376 51.0797 13.3593 50.9197 13.2934L50.8627 13.27C50.2372 13.7118 49.7202 14.2834 49.203 14.8554C48.3972 15.7464 47.5909 16.638 46.3727 17.04L46.3746 17.0357C46.6834 16.3285 46.8454 15.9574 53.1327 9.71001C53.1927 9.60334 53.8661 8.97001 55.1527 7.81001L54.9077 7.63001L54.6627 7.45001C53.3469 8.2395 52.2744 9.31839 51.2016 10.3977C50.1545 11.451 49.1071 12.5047 47.8327 13.29C47.6727 12.91 47.5227 12.38 47.4527 11.98C47.3755 11.9586 47.2854 11.9316 47.1927 11.9038L47.1926 11.9038C47.0692 11.8669 46.9412 11.8286 46.8327 11.8C46.8527 11.62 46.8827 11.37 46.9127 11.19C46.4046 11.5623 46.0129 12.0459 45.6218 12.5289L45.6218 12.5289C45.2354 13.0059 44.8496 13.4823 44.3527 13.85C44.3777 13.76 44.4102 13.6526 44.4427 13.5451L44.4428 13.5447L44.4429 13.5444L44.443 13.5442L44.4431 13.5438L44.4432 13.5436L44.4432 13.5435C44.4755 13.4365 44.5079 13.3296 44.5327 13.24C43.5594 13.4933 42.9127 13.72 42.5927 13.92C42.6227 13.825 42.6602 13.7175 42.6977 13.61C42.7352 13.5025 42.7727 13.395 42.8027 13.3C40.4227 13.85 38.6427 15.18 37.4627 16.07C37.6949 15.5105 38.1219 15.121 38.5498 14.7308C38.8407 14.4654 39.132 14.1998 39.3627 13.88C38.0719 14.0868 37.3661 14.9807 36.6598 15.8753C36.2389 16.4084 35.8179 16.9417 35.2727 17.33C34.2039 17.1102 33.9932 17.3595 32.358 19.2938L32.3527 19.3C32.2877 19.235 32.2127 19.1575 32.1377 19.08C32.0627 19.0025 31.9877 18.925 31.9227 18.86C31.5064 19.0253 31.24 19.3481 30.9744 19.6699C30.8062 19.8737 30.6382 20.0772 30.4327 20.24C30.5727 19.5533 31.5694 18.11 33.4227 15.91C33.4277 16.015 33.4352 16.1375 33.4427 16.26C33.4502 16.3825 33.4577 16.505 33.4627 16.61C33.5327 16.665 33.6176 16.7299 33.7025 16.7948L33.7027 16.795L33.703 16.7952C33.7879 16.8601 33.8728 16.9251 33.9427 16.98C36.0414 16.2205 36.6919 15.1214 38.11 12.6946ZM37.8474 12.1788L37.8427 12.17C37.1827 12.57 36.5327 12.97 35.8927 13.38C36.5376 12.9696 37.1892 12.5692 37.8474 12.1788ZM9.89274 72.3L9.89468 72.3024C10.2254 72.7032 10.9026 73.5241 10.8527 75.62L10.8602 75.6273C11.2795 76.0366 11.8476 76.5911 12.6627 78.45C12.7227 78.58 12.7927 78.76 12.8427 78.89C12.3582 75.2777 11.6029 72.0602 10.8813 68.9863C10.4262 67.0482 9.98464 65.1671 9.63274 63.28C8.885 63.5911 9.21564 65.5675 9.56782 67.6726C9.8609 69.4244 10.1689 71.2654 9.88274 72.31L9.89274 72.3ZM19.2227 29C18.7227 29.1534 17.916 30.05 16.8027 31.69V31.7C16.4827 32 16.0627 32.44 15.7927 32.8C15.788 32.7388 15.781 32.6753 15.774 32.6107C15.7661 32.5381 15.758 32.4641 15.7527 32.39C17.8627 29.45 20.1927 26.68 22.7127 24.09C22.4427 24.4 22.1827 24.72 21.9627 25.07L22.4827 25.41C22.5777 25.36 22.6902 25.3 22.8028 25.24L22.8028 25.24C22.9153 25.18 23.0277 25.12 23.1227 25.07C23.1427 25.165 23.1627 25.275 23.1827 25.385L23.1827 25.385L23.1827 25.3851C23.2027 25.4951 23.2227 25.605 23.2427 25.7C22.3694 26.1667 20.9727 27.44 19.0527 29.52L18.8227 29.65C18.9427 29.46 19.1027 29.2 19.2227 29ZM5.84271 57.97C5.70271 58.1233 5.37271 58.9267 4.85271 60.38V60.39C4.23711 60.0617 4.11332 59.4773 3.98918 58.8914C3.96208 58.7634 3.93497 58.6354 3.90271 58.51C4.34753 56.5892 4.86644 54.6965 5.45817 52.8358C5.36397 53.2639 5.27881 53.6924 5.20271 54.13C5.47447 53.1721 5.85937 52.256 6.24422 51.3399C6.7232 50.1998 7.2021 49.0599 7.46271 47.84C7.43271 47.71 7.42271 47.58 7.41271 47.45C7.69271 46.75 7.99271 46.06 8.30271 45.37C8.07271 47.45 7.48271 51.09 7.10271 53.37L7.29682 53.2846C7.81449 53.0567 8.04249 52.9564 8.38271 52.84C7.85325 50.7721 8.51137 50.2211 8.9414 49.8611L8.94271 49.86L9.48271 50.15C8.93271 52.7 8.94271 52.85 9.04271 54.2C9.1227 54.25 9.21518 54.3075 9.30767 54.365L9.30859 54.3655C9.40079 54.4229 9.49296 54.4802 9.57271 54.53C9.80271 54.21 10.0827 53.76 10.2727 53.41C10.2627 53.65 10.2627 53.96 10.2627 54.2C10.3377 54.25 10.4227 54.31 10.5077 54.37C10.5927 54.43 10.6777 54.49 10.7527 54.54C11.1227 54.34 11.5927 54.03 11.8927 53.74C12.0027 55.91 10.3527 60.77 8.39271 59.59C8.35271 59.58 8.35521 59.58 8.35646 59.58L8.35679 59.58C8.35681 59.5799 8.35547 59.5795 8.34933 59.5782L8.31271 59.57L8.3086 59.569C7.25204 59.3198 6.99122 59.2583 5.84271 57.97ZM7.40271 47.47C6.68565 49.2255 6.03707 51.0154 5.45817 52.8358L5.47271 52.77C6.05271 50.97 6.69271 49.2 7.40271 47.47ZM29.0728 18.27C26.8428 20.08 24.7128 22.02 22.7128 24.08C23.5676 23.2409 24.5574 22.4484 25.5136 21.6829C26.9846 20.5051 28.3758 19.3912 29.0728 18.27ZM9.16276 63.67L9.14276 63.52C8.94276 61.5 8.80276 60.43 8.58276 59.86C8.83276 60.38 8.97276 61.55 9.16276 63.67ZM13.6627 35.44C14.3327 34.4 15.0227 33.39 15.7427 32.39C15.0227 33.39 14.3327 34.41 13.6627 35.44ZM8.29272 45.36C8.80272 44.22 9.33273 43.1 9.89272 41.99C9.33273 43.1 8.79272 44.22 8.29272 45.36ZM9.64275 107.49C5.19275 98.37 2.54275 88.01 2.07275 77.7C2.46275 88.38 5.14275 98.46 9.64275 107.49ZM29.0828 18.26C30.3428 17.24 31.6328 16.27 32.9528 15.34C31.6328 16.27 30.3328 17.24 29.0828 18.26Z" fill="#026c82"/>
</svg>
