<svg width="150" height="150" viewBox="0 0 150 150" fill="none" xmlns="http://www.w3.org/2000/svg">
<path d="M35.08 148C38.61 143.31 43.15 139.65 47.99 136.33C52.92 132.94 58.28 130.39 64.17 128.93C64.73 128.79 65.26 128.55 66.02 128.27C57.08 112.24 46.42 97.59 33.71 83.81C30.19 91.84 26.94 99.55 27.01 108.62C24.23 106.01 23.04 103.14 22.79 100.01C22.54 96.96 22.74 93.88 22.74 90.73C19.18 94.39 16.06 98.43 13.96 103.66C12.68 100.73 12.46 98.23 13.16 95.71C13.82 93.33 14.69 91.01 15.17 88.34L7.21 95.38C6.64 92.62 7.55 90.11 8.95 87.84C10.36 85.56 12.15 83.5 13.64 80.9C9.85 82.27 6.07 83.64 2 85.12C4.4 78.58 10.01 75.87 16.09 73.68V73.14C13.18 72.48 10.26 71.82 7.11 71.11C9.49 69.12 12.28 68.43 15.18 68.49C18.02 68.55 20.84 69.08 23.84 69.43C23.46 63.64 23.64 57.87 28.99 53.07V62.21L29.46 62.43C32.4 56.67 35.85 51.44 43.08 49.71L37.48 60.33L37.98 60.81C42.43 57.51 47.09 54.84 53.18 55.76C50.31 58.19 47.59 60.48 44.87 62.78L45.2 63.29C50.23 61.63 55.26 60.42 60.91 63.27C55.14 64.67 50.68 67.31 46.42 70.5C53.03 70.42 59.38 70.82 64.14 76.15C55.65 75.28 47.67 77.33 39.26 79.62C52.11 90.46 62.59 102.8 71.41 116.65C75.17 92.56 80.14 68.92 90.97 46.38C77.56 46.98 64.36 47.01 51.71 53.25C53.74 47.89 57.16 44.2 61.79 41.83C66.26 39.54 71.08 37.9 75.81 35.95C67.99 33.54 59.94 31.35 51.23 32C53.94 28.75 57.57 26.84 61.67 26.08C65.76 25.33 69.97 25.17 74.29 24.73C69.46 21.65 64.22 19.32 58.43 17.97C66.98 13.4 75.4 15.21 83.89 18.35C80.07 13.03 75.83 8.19 70 4.82C72.52 3.31 79.31 4.12 84.4 7.16C88.65 9.7 92.45 12.93 96.51 15.9C96.49 11.41 95.45 6.88 93.43 2C98.32 4.13 101.26 7.47 103.01 11.58C104.71 15.57 105.75 19.81 106.99 23.64C111.15 22.26 115.62 20.44 120.26 19.32C124.95 18.2 129.7 18.54 133.96 20.92L120.32 26.66L120.42 27.38C131.09 27.72 141.29 29.13 147.99 38.5C141.44 36.85 134.86 36.79 128.15 37.65C136.15 41.75 143.16 46.63 145.19 55.84C140.36 52.43 134.96 50.37 129.36 48.69C131.87 52.07 134.57 55.21 136.69 58.68C138.82 62.16 139.85 66.07 139.16 70.85C133.84 63.58 126.74 59.22 119.32 55.04C124 64.19 127.37 73.42 122.33 83.45C118.44 70.12 109.19 60.14 100.13 49.39C99.42 51.77 98.79 53.68 98.28 55.62C95.89 64.62 93.32 73.58 91.24 82.65C89.69 89.4 88.59 96.27 87.67 103.14C86.6 111.17 85.98 119.25 85.11 127.3C84.97 128.59 85.48 129.08 86.7 129.44C98.14 132.85 107.19 139.69 115.21 148H35.08V148Z" fill="#026c82"/>
</svg>
