<svg width="150" height="150" viewBox="0 0 150 150" fill="none" xmlns="http://www.w3.org/2000/svg">
<path fill-rule="evenodd" clip-rule="evenodd" d="M10.127 147.999H22.197H22.207V145.649C22.1883 142.973 22.1647 140.295 22.1411 137.618C22.0891 131.721 22.037 125.823 22.037 119.929C22.037 116.099 22.072 112.269 22.107 108.439C22.142 104.609 22.177 100.779 22.177 96.9494C22.177 93.3944 22.142 89.8369 22.107 86.2794C22.072 82.7219 22.037 79.1644 22.037 75.6094C22.037 71.8778 22.0776 68.1462 22.1182 64.4146C22.153 61.2162 22.1878 58.0178 22.197 54.8194C22.227 45.4494 22.247 36.0894 22.157 26.7294C22.147 25.1594 22.707 24.2494 24.297 23.3694C29.997 20.2194 31.707 14.5594 28.917 8.8594C26.687 4.2994 19.937 1.2794 13.917 2.1494C8.05703 2.9894 3.43702 6.7894 2.24702 11.7394C1.13702 16.3094 3.84702 21.2494 8.78702 23.9194C9.42702 24.2694 10.097 25.0794 10.097 25.6794C10.187 44.7794 10.207 63.8894 10.207 82.9894C10.1995 96.9036 10.1752 110.812 10.1508 124.723C10.1427 129.368 10.1345 134.014 10.127 138.659V147.999ZM145.166 90.0535C146.066 90.4763 146.976 90.904 147.907 91.3294H147.917C147.935 91.2331 147.951 91.1559 147.965 91.091C147.991 90.9738 148.007 90.8966 148.007 90.8194C148.007 87.4736 148.008 84.1277 148.008 80.7819C148.011 64.0477 148.014 47.3136 147.947 30.5794C147.937 29.8494 147.197 28.9094 146.457 28.4494C136.607 22.2694 125.387 20.6594 113.697 22.7494C105.923 24.1433 98.317 26.3037 90.7501 28.453C89.8486 28.7091 88.9477 28.9649 88.0471 29.2194C86.0313 29.7888 84.0284 30.3885 82.0262 30.9881C76.1517 32.7473 70.2823 34.5049 64.1071 35.4894C53.9271 37.1194 44.1071 36.6194 34.7471 32.6394C33.326 32.0381 31.9609 31.3389 30.4605 30.5703C29.7648 30.2139 29.04 29.8427 28.2671 29.4594C28.2671 30.885 28.2648 32.2678 28.2625 33.6219C28.2581 36.2477 28.2539 38.7657 28.2671 41.2794C28.2791 44.8506 28.3007 48.4235 28.3223 51.9967C28.3547 57.3583 28.3871 62.7207 28.3871 68.0794C28.3827 71.3393 28.357 74.6011 28.3313 77.8631C28.2986 82.016 28.2659 86.1693 28.2771 90.3194C28.2771 90.9894 28.7371 91.8994 29.3571 92.2694C36.3671 96.4294 44.1771 98.7694 52.7971 98.8494C62.2671 98.9394 71.2371 96.8394 80.0371 94.1594C82.2916 93.4746 84.5378 92.7662 86.7841 92.0577C95.7566 89.2278 104.732 86.397 114.257 85.0694C123.057 83.8394 131.697 84.2494 139.847 87.6494C141.636 88.3942 143.381 89.2142 145.166 90.0535Z" fill="#026c82"/>
</svg>
